


<svg xmlns="http://www.w3.org/2000/svg" version="1.0" width="100px" height="100px" viewBox="0 0 5120 5120" preserveAspectRatio="xMidYMid meet">

    <g fill="#053658">
    <path d="M885 2489 c-228 -30 -478 -166 -627 -342 -228 -269 -305 -603 -212 -924 34 -116 69 -190 158 -331 112 -177 291 -398 531 -656 67 -72 145 -152 173 -179 46 -42 56 -47 99 -47 l48 0 130 132 c157 161 353 384 468 533 222 290 320 497 347 733 34 307 -120 656 -383 867 -202 163 -489 247 -732 214z m225 -139 c246 -39 474 -190 614 -408 109 -168 154 -344 134 -524 -30 -282 -220 -576 -706 -1096 -63 -67 -123 -127 -133 -133 -25 -13 -72 31 -261 239 -332 368 -495 602 -569 822 -41 122 -51 284 -24 405 97 438 534 759 945 695z"/>
    <path d="M860 2064 c-189 -49 -351 -205 -411 -394 -32 -99 -30 -249 5 -357 79 -244 291 -397 551 -397 170 0 312 60 424 179 71 77 115 160 141 266 25 106 25 175 0 273 -52 204 -205 365 -404 425 -81 25 -222 27 -306 5z m214 -125 c84 -15 160 -55 228 -117 68 -63 103 -118 129 -203 46 -147 6 -306 -106 -427 -249 -270 -694 -131 -757 235 -24 143 20 273 131 384 113 113 234 154 375 128z"/>
    <path d="M990 1832 c-45 -14 -50 -30 -50 -154 l0 -118 -115 0 c-110 0 -117 -1 -140 -25 -30 -29 -31 -54 -5 -88 20 -25 25 -26 138 -29 l117 -3 5 -109 c5 -104 6 -110 32 -129 24 -18 30 -18 58 -7 17 7 35 21 40 31 6 10 10 63 10 118 l0 101 119 0 c113 0 121 1 135 22 22 31 20 74 -4 98 -18 18 -33 20 -135 20 l-115 0 0 113 c-1 76 -5 117 -14 129 -16 21 -56 37 -76 30z"/>
    </g>
    </svg>