<svg xmlns="http://www.w3.org/2000/svg" version="1.0"  width="100px" height="100px" 
    viewBox="0 0 1024.000000 1024.000000" preserveAspectRatio="xMidYMid meet">

    <g transform="translate(0.000000,1024.000000) scale(0.100000,-0.100000)" fill="#053658">
        <path
            d="M4690 7985 c-261 -43 -484 -158 -675 -350 -201 -200 -308 -412 -350 -690 -40 -266 2 -514 126 -757 178 -346 490 -577 879 -649 99 -19 338 -16 443 4 254 51 477 173 651 358 336 357 434 878 249 1329 -152 372 -491 658 -878 742 -119 25 -332 32 -445 13z" />
        <path
            d="M3955 5402 c-512 -240 -858 -508 -1143 -884 -205 -271 -351 -655 -377 -989 -15 -192 57 -340 197 -405 l63 -29 1178 -3 c647 -1 1177 0 1177 2 0 2 -25 55 -55 118 -226 469 -215 1063 30 1523 94 175 167 274 333 447 64 67 108 118 97 114 -98 -40 -258 -87 -343 -101 -142 -24 -418 -17 -547 13 -171 40 -294 92 -448 187 -39 25 -74 45 -77 45 -3 0 -41 -17 -85 -38z" />
        <path
            d="M6475 5364 c-226 -35 -348 -71 -499 -146 -136 -67 -232 -136 -350 -248 -303 -289 -447 -621 -447 -1028 1 -233 45 -421 147 -623 78 -157 155 -259 297 -398 412 -401 1036 -502 1577 -254 263 120 535 385 663 644 130 265 181 557 143 816 -33 224 -100 399 -226 587 -222 332 -556 558 -932 631 -82 16 -315 28 -373 19z m219 -524 c56 -21 100 -62 133 -123 16 -28 18 -66 21 -284 l4 -253 236 0 c219 0 239 -2 279 -21 151 -73 177 -295 47 -409 -66 -57 -81 -60 -333 -60 l-230 0 -3 -243 -3 -242 -29 -46 c-16 -25 -51 -61 -78 -79 -42 -29 -58 -34 -126 -38 -70 -4 -82 -1 -132 25 -65 35 -115 95 -128 158 -5 25 -8 137 -5 255 l4 209 -244 3 -244 3 -49 30 c-128 80 -152 256 -51 372 70 78 88 83 350 83 l227 0 1 28 c0 15 2 125 4 244 3 248 11 277 88 343 74 64 168 79 261 45z" />
    </g>
</svg>