
    <svg xmlns="http://www.w3.org/2000/svg" version="1.0" width="100px" height="100px" viewBox="0 0 462.000000 573.000000" preserveAspectRatio="xMidYMid meet">

        <g transform="translate(0.000000,573.000000) scale(0.100000,-0.100000)" fill="#053658">
        <path d="M2090 5714 c-547 -69 -1035 -310 -1410 -700 -225 -233 -384 -477 -498 -759 -129 -324 -181 -608 -169 -925 26 -641 313 -1203 1098 -2147 225 -270 757 -851 960 -1049 75 -72 106 -96 152 -113 32 -11 68 -21 81 -21 40 0 114 27 154 56 83 62 650 668 919 984 69 80 155 181 193 225 89 105 343 432 433 559 107 150 259 402 341 566 237 469 315 971 221 1430 -70 346 -255 737 -481 1022 -84 105 -237 261 -344 350 -288 242 -669 421 -1049 495 -116 22 -167 26 -351 28 -118 2 -231 1 -250 -1z m559 -343 c135 -30 347 -103 465 -160 687 -333 1166 -1066 1166 -1781 -1 -477 -206 -962 -665 -1569 -289 -381 -727 -883 -1113 -1273 -142 -144 -170 -168 -196 -168 -27 0 -59 27 -256 228 -314 317 -641 689 -941 1067 -507 638 -723 1085 -770 1588 -27 296 47 651 201 956 105 209 219 370 384 539 305 313 674 509 1096 583 149 26 492 20 629 -10z"/>
        <path d="M2071 4755 c-398 -87 -703 -301 -921 -648 -188 -300 -232 -719 -115 -1092 39 -126 112 -275 181 -373 69 -96 224 -252 308 -310 157 -109 364 -194 552 -227 129 -22 361 -20 484 5 111 23 276 78 360 120 243 122 465 346 580 584 101 209 144 388 144 611 0 217 -37 379 -128 571 -71 148 -138 245 -251 363 -192 200 -446 340 -717 395 -99 20 -385 21 -477 1z m461 -324 c225 -59 405 -175 560 -361 288 -345 313 -822 65 -1203 -155 -237 -384 -390 -664 -443 -133 -25 -348 -16 -468 20 -176 53 -324 144 -453 280 -124 131 -194 253 -249 436 -26 89 -28 106 -27 270 0 146 4 188 22 253 105 382 432 688 817 763 97 19 297 12 397 -15z"/>
        <path d="M2220 4178 c-66 -46 -70 -63 -70 -345 l0 -253 -240 0 c-257 0 -287 -5 -338 -53 -73 -68 -69 -193 7 -246 53 -37 89 -41 332 -41 l239 0 0 -234 c0 -225 1 -234 23 -266 66 -99 208 -99 274 0 22 32 23 41 23 266 l0 234 23 5 c12 3 128 4 257 3 220 -3 237 -2 269 17 53 31 74 67 79 135 4 53 1 65 -22 100 -47 72 -59 74 -346 80 l-255 5 -5 260 c-5 252 -6 261 -28 293 -32 44 -71 62 -135 62 -40 0 -63 -6 -87 -22z"/>
        </g>
        </svg>