<svg xmlns="http://www.w3.org/2000/svg" width="100px" height="100px" viewBox="0 0 5120 5120" preserveAspectRatio="xMidYMid meet">

    <g fill="#053658">
        <path
            d="M4960 8740 c-481 -41 -996 -241 -1376 -535 -167 -128 -302 -254 -394 -365 -25 -30 -54 -64 -66 -76 -41 -43 -170 -222 -231 -321 -143 -234 -254 -498 -308 -734 -52 -228 -82 -687 -56 -851 6 -40 13 -91 16 -113 3 -22 15 -87 26 -145 105 -534 381 -1006 1133 -1940 392 -486 983 -1152 1316 -1482 144 -141 171 -158 223 -139 33 13 254 231 432 426 70 77 151 165 179 195 77 82 279 311 381 430 50 58 93 107 96 110 3 3 52 61 109 130 57 69 131 157 165 196 70 83 74 88 140 174 27 36 86 110 130 165 44 55 121 154 170 220 49 66 92 122 95 125 3 3 13 16 22 30 9 14 36 52 60 86 190 266 288 421 392 617 78 146 171 379 201 502 62 256 75 357 82 626 5 185 0 261 -32 509 -9 66 -76 295 -122 415 -228 597 -660 1101 -1204 1404 -210 118 -503 238 -614 252 -5 0 -17 5 -26 10 -9 4 -30 11 -48 14 -17 3 -59 12 -94 20 -185 43 -571 65 -797 45z m463 -950 c195 -33 324 -74 492 -155 357 -172 638 -450 815 -805 105 -209 160 -463 159 -730 -1 -286 -61 -529 -191 -770 -91 -168 -171 -275 -307 -410 -235 -231 -535 -383 -886 -447 -76 -13 -150 -18 -305 -18 -203 0 -254 7 -425 51 -11 3 -24 6 -30 8 -250 63 -550 238 -739 431 -210 214 -355 467 -425 740 -46 182 -54 258 -48 474 4 159 10 218 30 311 77 353 272 674 567 929 224 195 528 336 830 385 97 16 384 20 463 6z" />
        <path
            d="M5140 7289 c-51 -16 -88 -46 -113 -92 -22 -41 -22 -49 -25 -469 l-3 -428 -412 0 c-379 0 -415 -2 -453 -19 -50 -23 -107 -88 -123 -141 -26 -88 14 -197 92 -248 l42 -27 428 -3 427 -3 0 -376 c0 -259 4 -388 12 -415 23 -79 109 -138 198 -138 42 0 127 38 157 71 51 56 53 70 53 478 l0 380 423 3 423 3 42 28 c64 42 95 97 100 173 6 94 -34 164 -119 210 -31 17 -69 19 -449 24 l-415 5 -5 436 -5 436 -27 36 c-46 59 -82 79 -151 83 -34 2 -78 -1 -97 -7z" />
        <path
            d="M4100 2592 c-14 -2 -38 -7 -55 -12 -16 -5 -48 -12 -70 -16 -50 -7 -341 -103 -415 -136 -189 -85 -243 -119 -336 -212 -98 -99 -128 -163 -128 -276 0 -73 4 -93 29 -145 41 -88 175 -216 285 -276 195 -105 399 -173 675 -224 50 -10 99 -19 110 -21 61 -12 137 -24 185 -29 30 -3 89 -10 130 -15 282 -36 996 -41 1295 -10 105 11 217 24 250 29 33 6 80 13 105 16 280 38 658 155 852 265 104 60 146 92 210 167 72 83 101 153 102 249 1 171 -136 326 -406 457 -116 56 -239 100 -388 137 -217 54 -240 57 -265 28 -128 -150 -186 -216 -204 -232 -27 -24 -27 -36 1 -36 23 0 131 -20 278 -52 318 -68 574 -192 595 -288 18 -84 -91 -162 -354 -252 -105 -36 -341 -90 -451 -103 -30 -4 -57 -8 -60 -10 -3 -2 -33 -6 -65 -10 -33 -3 -80 -8 -105 -11 -232 -25 -411 -34 -725 -34 -176 0 -358 4 -405 9 -47 5 -88 7 -91 5 -4 -2 -29 0 -55 5 -27 5 -78 12 -114 16 -69 6 -211 24 -245 30 -11 1 -38 6 -60 10 -290 49 -574 146 -675 231 -18 16 -39 43 -47 61 -51 124 191 255 650 353 75 17 161 33 190 36 28 4 54 8 56 10 3 3 -20 30 -50 62 -31 31 -89 95 -129 142 -40 47 -73 85 -74 85 -1 1 -12 -1 -26 -3z" />
    </g>
</svg>