<svg xmlns="http://www.w3.org/2000/svg" version="1.0" width="100px" height="100px" viewBox="0 0 512.000000 512.000000" preserveAspectRatio="xMidYMid meet">

    <g transform="translate(0.000000,512.000000) scale(0.100000,-0.100000)" fill="#053658" >
        <path
            d="M120 404 c-74 -32 -112 -95 -113 -189 -1 -139 102 -226 238 -201 46 9 110 67 125 112 13 38 19 175 9 168 -13 -8 -17 24 -6 36 9 10 9 11 -1 6 -8 -5 -21 3 -34 19 -45 58 -146 80 -218 49z m173 -74 c15 -17 26 -34 26 -38 -1 -4 -30 -34 -65 -66 l-63 -59 -58 44 -58 43 32 -39 c64 -78 79 -95 84 -95 3 0 31 31 63 70 55 67 76 83 76 59 0 -14 -128 -159 -140 -159 -4 0 -36 32 -70 70 -58 65 -62 73 -56 106 20 105 157 144 229 64z m-174 -195 c33 -47 47 -75 38 -75 -21 0 -65 38 -82 70 -13 26 -21 80 -11 80 2 0 27 -34 55 -75z m194 -2 c-19 -38 -64 -78 -81 -72 -5 2 13 36 42 76 38 54 52 67 54 52 2 -11 -5 -36 -15 -56z" />
    </g>
</svg>