<svg xmlns="http://www.w3.org/2000/svg" version="1.0" width="100px" height="100px" viewBox="0 0 512.000000 512.000000" preserveAspectRatio="xMidYMid meet">

    <g transform="translate(0.000000,512.000000) scale(0.100000,-0.100000)" fill="#053658" >
        <path
            d="M3760 7968 c-49 -14 -97 -53 -120 -98 -20 -39 -20 -61 -20 -1240 l0 -1200 170 0 170 0 2 903 3 902 223 5 c284 6 262 -12 262 216 l0 164 680 0 680 0 0 180 0 180 -1007 -1 c-636 0 -1021 -4 -1043 -11z" />
        <path
            d="M5958 7768 c-4 -290 -2 -321 17 -359 43 -85 69 -96 240 -104 l140 -8 0 -66 c0 -36 1 -456 3 -933 l2 -868 165 0 165 0 0 970 0 970 -32 34 c-18 19 -158 156 -312 305 l-278 271 -54 0 -54 0 -2 -212z" />
        <path
            d="M5093 7011 c-692 -6 -702 -6 -730 -27 -38 -28 -57 -70 -58 -126 0 -55 25 -94 76 -120 31 -17 89 -18 777 -18 803 0 769 -2 821 54 35 37 39 109 9 160 -29 51 -69 73 -138 78 -30 2 -371 2 -757 -1z" />
        <path
            d="M3183 6461 c-96 -35 -156 -94 -207 -201 -30 -63 -31 -69 -35 -235 -2 -93 0 -266 4 -382 l7 -213 259 0 259 0 -2 523 -3 522 -115 2 c-92 2 -125 -1 -167 -16z" />
        <path
            d="M6850 5956 l0 -526 265 0 265 0 0 338 c0 202 -4 362 -11 398 -23 126 -102 229 -217 282 -49 22 -74 27 -179 30 l-123 4 0 -526z" />
        <path
            d="M4538 6420 c-150 -5 -158 -6 -184 -30 -76 -71 -68 -178 18 -230 32 -19 52 -20 788 -20 740 0 756 0 788 20 60 37 81 134 42 197 -38 63 -16 61 -686 65 -335 2 -680 1 -766 -2z" />
        <path
            d="M4355 5799 c-82 -73 -66 -205 31 -245 27 -12 167 -14 776 -14 724 0 744 1 776 20 92 56 96 195 7 250 -32 20 -48 20 -793 20 l-761 0 -36 -31z" />
        <path
            d="M2505 5250 c-194 -31 -349 -184 -385 -382 -7 -36 -10 -427 -8 -1119 l3 -1064 22 -57 c61 -159 192 -284 338 -322 53 -14 342 -16 2666 -16 1693 0 2625 4 2660 10 30 5 86 26 126 45 119 59 220 189 257 331 14 55 16 184 16 1091 0 687 -4 1049 -11 1089 -16 91 -70 191 -142 263 -78 79 -160 120 -259 132 -92 10 -5215 9 -5283 -1z m5048 -384 c47 -11 67 -57 67 -158 l0 -88 94 0 c86 0 95 -2 119 -25 31 -32 39 -71 23 -110 -21 -50 -41 -60 -140 -65 l-91 -5 -5 -80 c-7 -113 -37 -155 -110 -155 -76 0 -112 55 -109 163 l2 72 -96 3 -96 3 -31 36 c-28 31 -31 42 -27 76 9 68 32 81 150 87 l102 5 5 101 c3 64 10 107 19 118 14 16 67 35 86 30 6 -1 23 -5 38 -8z m-928 -545 c51 -23 101 -79 114 -128 6 -21 11 -80 11 -131 0 -91 0 -93 -34 -130 l-34 -37 -131 -3 -131 -4 0 -563 0 -564 -26 -20 c-27 -21 -28 -21 -1238 -21 l-1212 0 -27 28 -27 28 0 557 0 557 -117 0 c-128 0 -153 7 -187 53 -18 25 -21 42 -20 136 0 98 3 112 27 153 27 47 60 74 112 95 22 9 389 12 1455 12 1358 1 1427 0 1465 -18z" />
        <path
            d="M4455 3970 c-33 -3 -70 -11 -83 -18 -38 -22 -62 -71 -62 -130 0 -46 4 -57 34 -90 l34 -37 769 -3 c738 -2 769 -1 799 17 34 21 64 75 64 115 0 37 -23 87 -51 113 -50 44 -74 46 -779 42 -366 -2 -692 -6 -725 -9z" />
        <path
            d="M4373 3360 c-63 -38 -84 -114 -51 -179 44 -86 -7 -81 836 -81 834 0 795 -3 832 71 37 71 15 148 -53 189 -31 19 -56 20 -782 20 -726 0 -751 -1 -782 -20z" />
    </g>
</svg>