
<svg xmlns="http://www.w3.org/2000/svg" version="1.0" width="100px" height="100px" viewBox="0 0 757.000000 762.000000" preserveAspectRatio="xMidYMid meet">

    <g transform="translate(0.000000,762.000000) scale(0.100000,-0.100000)" fill="#053658">
        <path d="M2622 7417 c-12 -7 -229 -219 -483 -472 l-460 -458 2 -430 c1 -419 1 -429 -19 -449 -19 -19 -34 -21 -199 -22 -108 -2 -196 -7 -223 -15 -125 -35 -233 -127 -290 -245 -54 -115 -60 -168 -60 -580 0 -276 -3 -375 -12 -384 -9 -9 -71 -12 -218 -12 -224 0 -275 -8 -378 -57 -74 -36 -179 -141 -215 -215 -66 -137 -61 -40 -65 -1463 -3 -1426 -5 -1378 60 -1514 39 -82 141 -185 220 -224 123 -59 117 -58 832 -55 l655 3 3 -305 c3 -286 4 -308 24 -351 27 -58 85 -116 143 -143 l46 -21 1735 0 1735 0 46 21 c58 27 116 85 143 143 20 43 21 65 24 349 l3 302 652 0 c713 0 708 0 825 59 111 56 202 159 243 276 44 127 49 250 49 1482 0 1092 -1 1157 -19 1250 -10 54 -27 118 -37 143 -43 110 -137 214 -239 264 -103 50 -148 56 -432 56 -259 0 -262 0 -274 22 -9 16 -10 119 -7 387 3 212 2 389 -4 421 -16 92 -73 197 -147 271 -117 116 -191 139 -447 139 -157 0 -183 2 -195 17 -12 13 -15 159 -19 822 l-5 806 -27 47 c-38 64 -91 105 -167 128 -62 20 -96 20 -1420 20 -1059 -1 -1361 -4 -1379 -13z m2728 -1659 c0 -1262 -1 -1373 -17 -1390 -15 -17 -81 -18 -1681 -18 -1536 0 -1667 1 -1684 17 -17 15 -18 62 -18 1064 0 576 3 1055 6 1064 17 42 43 45 454 45 424 0 425 0 469 56 44 57 19 119 -90 218 -162 148 -289 278 -289 296 0 20 14 20 1425 20 l1425 0 0 -1372z m-3692 -468 c22 -21 22 -21 22 -464 0 -418 -1 -444 -19 -460 -16 -14 -44 -16 -237 -14 l-218 3 -13 25 c-16 32 -18 735 -2 793 12 46 63 105 104 123 20 9 80 13 186 14 143 0 157 -2 177 -20z m4369 9 c44 -16 91 -68 108 -119 13 -40 15 -104 13 -424 -3 -361 -4 -378 -22 -392 -16 -11 -67 -14 -247 -14 -224 0 -228 0 -243 22 -14 20 -16 80 -16 456 l0 433 25 24 c24 25 27 25 189 25 92 0 177 -5 193 -11z m947 -1261 c68 -37 142 -113 174 -178 l27 -55 0 -1255 c0 -1170 -1 -1257 -17 -1291 -10 -20 -24 -42 -33 -49 -8 -7 -15 -18 -15 -24 0 -7 -17 -28 -37 -48 -71 -68 -71 -68 -671 -68 -295 0 -581 3 -634 7 l-97 6 -3 662 -3 661 -30 59 c-19 37 -46 72 -73 92 -88 67 31 63 -1842 63 -1873 0 -1754 4 -1842 -63 -27 -20 -54 -55 -73 -92 l-30 -59 -3 -662 -3 -662 -102 -7 c-56 -3 -348 -5 -649 -3 l-547 3 -56 55 c-31 30 -68 80 -83 110 l-27 55 0 1246 0 1245 34 70 c35 69 95 144 116 144 7 0 20 9 30 20 10 11 28 20 40 20 11 0 25 4 31 9 5 5 23 11 39 14 17 2 1448 4 3180 3 l3150 -1 49 -27z m-1506 -1513 c49 -21 81 -52 103 -100 18 -38 19 -91 19 -1115 0 -1024 -1 -1077 -19 -1115 -22 -48 -54 -79 -103 -100 -33 -13 -227 -15 -1748 -15 -1521 0 -1715 2 -1748 15 -49 21 -81 52 -103 100 -18 38 -19 91 -19 1113 0 946 2 1077 15 1110 21 49 52 81 100 103 38 18 109 19 1753 19 1524 0 1717 -2 1750 -15z"/>
        <path d="M3655 5826 c-39 -18 -79 -63 -94 -105 -6 -19 -11 -97 -11 -176 0 -123 -2 -144 -17 -157 -14 -12 -57 -17 -200 -21 -191 -6 -217 -12 -259 -59 -80 -87 -71 -193 22 -264 l37 -29 191 -3 c157 -3 194 -6 208 -19 15 -14 18 -35 18 -145 0 -117 2 -133 25 -177 34 -67 76 -96 142 -96 42 0 58 5 89 31 76 61 79 69 82 230 3 134 5 145 25 159 17 12 57 15 195 15 130 0 180 4 200 14 31 16 84 71 101 103 14 28 14 98 0 126 -17 33 -61 78 -89 90 -14 6 -106 14 -206 17 -239 7 -224 -6 -224 192 0 163 -7 194 -56 240 -52 48 -119 61 -179 34z"/>
        <path d="M5583 3679 c-48 -14 -99 -68 -113 -119 -7 -27 -11 -94 -8 -175 3 -148 17 -184 86 -227 35 -22 47 -23 203 -23 163 0 166 0 206 27 25 16 49 44 63 72 20 42 22 58 18 189 -3 161 -16 195 -86 239 -34 21 -50 23 -187 25 -82 1 -164 -2 -182 -8z"/>
        <path d="M6313 3679 c-46 -14 -100 -71 -114 -121 -6 -25 -9 -95 -7 -173 3 -148 17 -184 86 -227 35 -22 47 -23 202 -23 155 0 167 1 202 23 20 13 47 40 60 60 21 34 23 48 23 192 0 144 -2 158 -23 192 -13 20 -40 47 -60 60 -34 21 -50 23 -187 25 -82 1 -165 -2 -182 -8z"/>
        <path d="M950 3577 c-59 -30 -63 -113 -7 -148 31 -19 56 -19 803 -17 731 3 773 4 792 21 27 25 36 64 21 99 -25 60 3 58 -826 58 -591 0 -764 -3 -783 -13z"/>
        <path d="M1976 1914 c-9 -8 -16 -19 -16 -24 0 -5 7 -16 16 -24 14 -14 185 -16 1739 -16 1554 0 1725 2 1739 16 20 19 20 29 0 48 -14 14 -185 16 -1739 16 -1554 0 -1725 -2 -1739 -16z"/>
        <path d="M1976 1544 c-9 -8 -16 -19 -16 -24 0 -5 7 -16 16 -24 14 -14 185 -16 1739 -16 1554 0 1725 2 1739 16 20 19 20 29 0 48 -14 14 -185 16 -1739 16 -1554 0 -1725 -2 -1739 -16z"/>
        <path d="M1996 1174 c-9 -8 -16 -19 -16 -24 0 -5 7 -16 16 -24 14 -14 185 -16 1739 -16 1554 0 1725 2 1739 16 20 19 20 29 0 48 -14 14 -185 16 -1739 16 -1554 0 -1725 -2 -1739 -16z"/>
        </g>
    </svg>

