
<svg xmlns="http://www.w3.org/2000/svg" version="1.0" width="100px" height="100px" viewBox="0 0 757.000000 762.000000" preserveAspectRatio="xMidYMid meet">

    <g transform="translate(0.000000,762.000000) scale(0.100000,-0.100000)" fill="#053658">
    <path d="M2431 7366 c-130 -128 -347 -344 -484 -479 l-247 -246 0 -368 c0 -202 0 -401 0 -440 l0 -73 -173 0 c-123 0 -190 -4 -232 -15 -163 -43 -291 -165 -357 -342 -21 -56 -22 -75 -26 -475 l-3 -418 -198 0 c-218 0 -259 -7 -366 -63 -85 -45 -211 -173 -257 -263 -72 -138 -68 -46 -68 -1484 0 -1448 -6 -1331 73 -1485 53 -104 165 -218 258 -263 127 -62 126 -62 766 -62 l583 0 0 -333 0 -334 31 -62 c36 -72 98 -124 169 -141 31 -7 624 -9 1900 -8 1761 3 1857 4 1895 21 56 25 120 91 147 151 22 49 23 61 26 379 l3 327 588 0 c646 0 641 0 769 63 86 42 188 144 242 240 44 78 86 200 75 217 -4 6 -2 17 4 24 7 9 10 399 8 1292 -2 1275 -2 1279 -23 1334 -81 212 -207 346 -397 423 -47 20 -76 22 -317 27 l-265 5 0 415 c0 408 -1 416 -23 471 -56 140 -162 256 -289 317 l-78 37 -210 5 -210 5 -5 810 c-5 761 -6 812 -23 844 -33 60 -95 117 -160 147 l-62 29 -1414 3 -1414 2 -236 -234z m2939 -1488 l0 -1368 -1650 0 -1650 0 0 303 c-1 1282 1 1781 6 1786 3 3 191 8 418 11 l413 5 37 29 c81 61 98 138 47 217 -16 24 -107 118 -204 209 -96 91 -174 167 -172 170 2 3 622 5 1379 5 l1376 0 0 -1367z m-3670 -933 l0 -435 -197 2 -198 3 -3 365 c-2 236 1 378 8 402 5 20 26 50 45 67 l36 31 154 0 155 0 0 -435z m4415 404 c20 -18 39 -47 45 -69 6 -24 9 -176 8 -402 l-3 -363 -210 0 -210 0 -3 433 -2 432 170 0 169 0 36 -31z m913 -1223 c23 -10 60 -38 81 -63 76 -85 71 7 71 -1373 l0 -1236 -26 -52 c-29 -59 -69 -96 -133 -125 -51 -22 -93 -23 -738 -19 l-413 2 0 668 c0 423 -4 680 -10 704 -30 105 -125 188 -237 208 -50 8 -540 10 -1883 8 l-1815 -3 -50 -23 c-70 -32 -131 -95 -155 -160 -19 -51 -20 -78 -20 -726 l0 -674 -126 -7 c-70 -4 -319 -6 -554 -3 l-427 4 -56 28 c-32 15 -69 44 -87 66 -63 80 -60 3 -60 1349 1 1006 3 1233 14 1264 31 85 89 142 175 173 29 11 631 13 3221 11 3084 -2 3186 -3 3228 -21z m-1550 -1661 c10 -4 12 -218 10 -1047 l-3 -1043 -1707 -2 -1708 -2 -2 357 c-2 196 -2 669 0 1049 l2 693 298 2 c428 4 3095 -2 3110 -7z"/>
    <path d="M3712 6003 c-38 -7 -118 -92 -131 -138 -6 -22 -11 -104 -11 -181 l0 -142 -167 -6 c-93 -4 -182 -9 -199 -12 -52 -8 -109 -57 -139 -118 -53 -108 -21 -228 77 -293 41 -28 43 -28 235 -31 l193 -3 0 -127 c0 -114 3 -133 25 -179 28 -61 103 -118 143 -108 12 3 22 1 22 -5 0 -5 14 -10 31 -10 83 0 168 53 200 124 15 33 19 66 19 174 l0 132 180 0 c147 0 187 3 213 16 70 35 120 104 133 181 13 83 -44 196 -117 231 -39 19 -65 21 -224 24 l-180 3 -5 165 c-5 178 -11 199 -67 252 -53 50 -137 69 -231 51z"/>
    <path d="M5380 3831 c-31 -5 -65 -13 -77 -19 -33 -18 -71 -69 -83 -110 -13 -49 -13 -357 1 -407 14 -51 73 -110 124 -124 22 -6 108 -11 190 -11 169 0 209 11 258 69 40 48 47 90 47 276 0 159 -2 173 -24 222 -17 36 -38 60 -67 80 -41 27 -47 28 -178 29 -75 1 -161 -1 -191 -5z"/>
    <path d="M6286 3829 c-53 -13 -93 -44 -116 -89 -18 -35 -20 -60 -20 -240 0 -177 2 -205 19 -238 44 -87 87 -102 283 -102 84 0 169 5 188 10 41 11 94 61 110 105 12 31 15 410 3 443 -12 33 -54 82 -86 99 -26 14 -63 18 -187 20 -85 1 -172 -2 -194 -8z"/>
    <path d="M1000 3691 c-111 -5 -129 -9 -159 -30 -37 -27 -70 -90 -71 -136 0 -54 40 -117 90 -142 l44 -23 579 0 c414 0 591 3 619 12 48 14 105 75 114 122 16 86 -38 172 -121 195 -42 11 -852 13 -1095 2z"/>
    <path d="M2490 2260 c0 -6 -6 -10 -12 -10 -38 0 -42 -98 -6 -137 l21 -23 1286 1 1285 2 28 28 c43 42 33 114 -18 138 -33 14 -2584 16 -2584 1z"/>
    <path d="M2602 1831 c-115 -6 -125 -8 -143 -30 -34 -41 -22 -118 22 -141 14 -8 324 -11 1067 -8 576 1 1154 3 1284 3 233 0 238 0 260 23 33 33 31 94 -5 129 l-27 28 -1168 1 c-642 0 -1223 -2 -1290 -5z"/>
    <path d="M2506 1393 c-4 -5 -11 -8 -16 -8 -16 0 -50 -49 -50 -72 0 -29 17 -63 39 -80 12 -10 306 -12 1298 -13 l1282 0 27 24 c38 32 37 87 0 125 l-26 26 -1273 3 c-701 1 -1277 -1 -1281 -5z"/>
    <path d="M2466 945 c-34 -31 -35 -79 -2 -120 l24 -30 1281 -3 1280 -2 33 29 c42 38 44 93 3 128 l-26 23 -1283 0 -1283 0 -27 -25z"/>
    </g>
    </svg>